<svg width="64" height="64" viewBox="0 0 64 64" fill="none" xmlns="http://www.w3.org/2000/svg">
<circle cx="42" cy="13" r="5.25" stroke="black" stroke-width="2.5"/>
<path d="M37.226 16.4519C36.7625 16.4519 35.5502 16.505 33.6905 16.6299C32.13 16.7347 29.3099 16.7908 27.7421 16.854C24.9299 16.9674 23.2448 17.096 22.9821 17.1927C22.6189 17.3264 22.0516 18.3735 21.1054 19.836C20.2316 21.1866 19.2226 22.5043 18.4287 23.6272C17.9344 24.3261 17.6791 24.7246 17.0729 26.0954C16.8901 26.5086 16.9271 26.9446 16.9634 27.4605C16.9908 27.8499 17.2489 28.1077 17.4595 28.3119C17.6473 28.4942 18.0793 28.5136 18.5648 28.5032C18.8954 28.4961 19.6192 27.6805 20.6691 26.4528C22.0335 24.8574 23.2257 23.6914 23.7812 23.3035C24.2793 22.9558 24.8235 22.6527 26.1596 22.5335C26.8811 22.4691 28.0823 22.5202 28.6636 22.5654C29.2449 22.6106 29.1727 22.7009 29.0344 22.8874C28.6904 23.3512 28.1422 24.1737 27.2317 25.9461C26.6083 27.1597 25.8839 29.1207 25.4741 30.1833C24.6045 32.438 25.246 35.0883 25.6166 35.5932C26.0343 36.1623 27.1016 36.4155 27.8119 36.5972C28.1238 36.6771 29.5224 37.2141 31.6277 38.1352C33.6007 38.9985 34.0102 39.4606 34.8872 39.9868C35.2351 40.1956 35.5091 40.4476 35.787 40.6741C36.0097 40.8556 35.8126 41.5506 35.5572 42.789C35.4708 43.2078 35.4513 43.6888 35.3216 44.8016C34.8998 48.4224 34.8838 49.0873 34.8037 49.9754C34.6564 51.6084 35.018 52.3011 35.2578 52.8195C35.4663 53.2704 35.9515 53.5658 36.5011 53.7087C36.9722 53.8312 37.4222 53.6321 37.6799 53.4474C38.1305 53.1246 38.4493 51.8596 39.0316 48.6755C39.2224 47.6324 39.803 45.7746 40.4671 43.3068C40.965 41.4566 41.225 40.4827 41.5432 39.6067C41.6768 39.2389 41.8101 38.948 41.846 38.7665C41.8807 38.591 41.3386 38.5835 40.684 38.1444C39.485 37.3402 38.0609 36.1369 36.7714 35.2533C35.5959 34.4478 34.8158 33.7267 34.3068 33.1086C33.9861 32.7191 34.7188 32.1157 35.3868 31.2102C36.5253 29.667 37.6009 28.425 37.9944 28.0305C38.4825 27.5411 40.0102 29.9596 41.0247 31.0213C41.7827 31.8146 42.8909 32.3934 45.1092 33.03C46.8922 33.5417 48.6536 33.223 49.8732 33.1627C51.1207 33.101 52.0515 32.6838 52.5765 32.4363C52.9082 32.28 53.0974 31.9516 53.252 31.5412C53.5435 30.7673 53.2688 29.6604 53.0385 29.1973C52.9301 28.9793 52.6468 28.8731 52.4013 28.7645C52.1801 28.6667 51.3137 28.6903 50.0186 28.6674C47.9664 28.6311 46.2504 28.132 45.8574 28.0725C45.0162 27.9453 44.2019 25.7081 42.8552 23.796C41.4744 21.8353 40.91 20.5851 40.7463 20.3269C39.8247 18.8371 38.1387 16.6667 37.6345 16.3416M37.6345 16.3416C37.5196 16.3125 37.7784 16.1973 37.6345 16.3416Z" stroke="black" stroke-width="2.5" stroke-linecap="round"/>
<path d="M25 32.5C24.898 32.6761 24.6369 33.3863 23.4251 35.4596C23.1005 36.0148 22.7143 36.4537 22.0487 37.2254C21.1083 38.3159 20.2251 38.9492 19.1597 39.5611C18.2886 40.0614 16.7153 40.8912 15.5375 41.4317C13.6629 42.292 12.084 42.7741 10.8682 43.3745C9.52519 44.0377 8.64966 45.7729 8.60994 46.7178C8.60103 46.9298 8.69927 47.028 8.78303 47.1087C9.13425 47.447 10.5273 47.436 12.9071 46.8131C14.0249 46.5205 15.1318 46.0859 16.5 45.5C17.8682 44.9141 19.3957 44.0537 20.1773 43.7676C20.9589 43.4816 21.5505 43.2896 22.4794 42.8469C24.6938 41.7915 25.9768 40.8377 26.2545 40.6541C28 39.5 28.8451 38.3286 29 38" stroke="black" stroke-width="2.5" stroke-linecap="round"/>
<path d="M37.1934 29.0026C37.3988 28.7429 37.9152 28.1376 38.4357 27.4811C38.9801 26.7943 39.5603 26.2631 39.928 25.9142C40.6773 25.2032 40.998 24.5447 41.2561 24.129C41.4588 23.8026 41.603 23.3932 41.6877 23.045C41.7191 22.9266 41.7408 22.7945 41.7524 22.6439C41.757 22.5729 41.7591 22.513 41.7612 22.4512" stroke="black" stroke-width="2.5" stroke-linecap="round"/>
</svg>
