<svg width="64" height="64" viewBox="0 0 64 64" fill="none" xmlns="http://www.w3.org/2000/svg">
<g clip-path="url(#clip0_2486_251)">
<path d="M32.1573 11.8427L9.69774 34.3023C9.31089 34.6891 9.30672 35.315 9.68838 35.707L26.793 53.2739C27.1819 53.6733 27.8224 53.6776 28.2166 53.2834L50.67 30.83C50.8792 30.6208 50.985 30.3298 50.959 30.035L49.5715 14.3102C49.5298 13.8383 49.1627 13.4603 48.6922 13.405L32.9813 11.5566C32.6773 11.5209 32.3737 11.6263 32.1573 11.8427Z" stroke="black" stroke-width="2.5"/>
<circle cx="41" cy="21" r="3.25" stroke="black" stroke-width="2.5"/>
<path d="M31.1815 31.8043C34.134 32.21 35.6103 33.8553 35.6103 36.7402C35.6103 39.3096 34.089 40.7633 31.0463 41.1014V43.4004H28.5107V41.1352C26.933 40.9775 25.806 40.538 25.1299 39.8167C24.4763 39.073 24.1495 38.0024 24.1495 36.605L27.4288 36.3683C27.4288 38.5546 28.1613 39.6477 29.6263 39.6477C30.4377 39.6477 31.0125 39.4674 31.3505 39.1068C31.6886 38.7461 31.8577 38.2052 31.8577 37.484C31.8577 36.019 31.2378 35.1512 29.9982 34.8808L28.3416 34.6441C26.8992 34.4187 25.8399 33.9229 25.1637 33.1566C24.4875 32.3903 24.1495 31.2972 24.1495 29.8772C24.1495 27.1951 25.6032 25.6963 28.5107 25.3808V23.048H31.0463V25.3808C32.5338 25.5386 33.5931 25.9781 34.2242 26.6993C34.8553 27.398 35.1708 28.446 35.1708 29.8434L31.8577 30.1139C31.8577 29.0095 31.6999 28.1868 31.3843 27.6459C31.0688 27.105 30.5053 26.8345 29.694 26.8345C28.5219 26.8345 27.9359 27.5896 27.9359 29.0996C27.9359 29.866 28.0486 30.4632 28.274 30.8915C28.5219 31.2972 28.9389 31.5451 29.5249 31.6352L31.1815 31.8043Z" fill="black"/>
</g>
<defs>
<clipPath id="clip0_2486_251">
<rect width="64" height="64" fill="white"/>
</clipPath>
</defs>
</svg>
