<svg width="64" height="64" viewBox="0 0 64 64" fill="none" xmlns="http://www.w3.org/2000/svg">
<path d="M33 14C39.6274 14 45 19.3726 45 26C45 32.6274 39.6274 38 33 38C26.3726 38 21 32.6274 21 26C21 19.3726 26.3726 14 33 14ZM32.5 17C30.7858 16.143 30.4319 19.9996 28.7178 19.5713C27.0035 19.1427 28.2885 18.2853 26.5742 18.7139C24.86 19.1425 23.1457 21.7142 23.5742 25.1426C23.4315 26.1427 24.9436 24.4569 25.2861 25.1426C25.7142 25.9999 22.9287 30.9285 25.5 30.5C28.0714 30.0714 30.0029 29.8572 30.0029 32.8574C30.003 35.9478 34.7179 35.0003 38.1465 32.8574C41.5747 30.7147 41.5746 27.7147 42.4316 24.7148C43.2888 21.7148 40.7175 19.571 39.8604 18.7139C39.0031 17.8568 37.2896 17.0005 38.5752 19.5713C39.4323 20.8567 39.8604 23.4292 39.8604 24.7148C39.8596 26.001 35.5748 30.2863 34.7178 30.7148C33.8606 31.1434 33.4321 29.0001 34.7178 25.1426C36.0034 21.2851 34.2143 17.8571 32.5 17Z" fill="black"/>
<path d="M33.0869 6V4.75H33.0869L33.0869 6ZM53.1738 26.0869H54.4238V26.0869L53.1738 26.0869ZM53.167 26.6055L51.9174 26.5738L51.9166 26.6069L51.9175 26.6399L53.167 26.6055ZM53.1738 27H54.4238H53.1738ZM33.0869 58.5L32.2624 59.4395L33.0803 60.1573L33.9039 59.446L33.0869 58.5ZM32.4404 57.9326L31.6097 58.8667L31.6159 58.8721L32.4404 57.9326ZM13 27H11.75H13ZM13.0068 26.6055L14.2564 26.6399L14.2573 26.6069L14.2564 26.5738L13.0068 26.6055ZM13 26.0869L11.75 26.0869V26.0869H13ZM33.0869 13.3047V12.0547H33.0869L33.0869 13.3047ZM20.3047 26.0869L19.0547 26.0869V26.0869H20.3047ZM33.0869 38.8691L33.0869 40.1191H33.0869V38.8691ZM45.8691 26.0869H47.1191V26.0869L45.8691 26.0869ZM33.0869 6V7.25C43.4903 7.25 51.9238 15.6836 51.9238 26.0869L53.1738 26.0869L54.4238 26.0869C54.4238 14.3029 44.871 4.75 33.0869 4.75V6ZM53.1738 26.0869H51.9238C51.9238 26.2484 51.9215 26.4107 51.9174 26.5738L53.167 26.6055L54.4166 26.6371C54.4212 26.4556 54.4238 26.2721 54.4238 26.0869H53.1738ZM53.167 26.6055L51.9175 26.6399C51.9211 26.77 51.9238 26.8866 51.9238 27H53.1738H54.4238C54.4238 26.8493 54.4202 26.7029 54.4165 26.571L53.167 26.6055ZM53.1738 27H51.9238C51.9238 32.2402 48.7879 38.3922 44.6314 44.0905C40.5118 49.7381 35.5584 54.7139 32.2699 57.554L33.0869 58.5L33.9039 59.446C37.3111 56.5035 42.4011 51.3902 46.6511 45.5638C50.8641 39.7882 54.4238 33.0816 54.4238 27H53.1738ZM33.0869 58.5L33.9115 57.5605L33.265 56.9931L32.4404 57.9326L31.6159 58.8721L32.2624 59.4395L33.0869 58.5ZM32.4404 57.9326L33.2711 56.9986C29.8886 53.9903 25.0957 49.0673 21.1599 43.5603C17.1898 38.0054 14.25 32.073 14.25 27H13H11.75C11.75 32.8949 15.094 39.3726 19.1259 45.014C23.1921 50.7032 28.1194 55.7625 31.6097 58.8667L32.4404 57.9326ZM13 27H14.25C14.25 26.8866 14.2528 26.77 14.2564 26.6399L13.0068 26.6055L11.7573 26.571C11.7537 26.7029 11.75 26.8493 11.75 27H13ZM13.0068 26.6055L14.2564 26.5738C14.2523 26.4107 14.25 26.2484 14.25 26.0869H13H11.75C11.75 26.2721 11.7526 26.4556 11.7572 26.6371L13.0068 26.6055ZM13 26.0869L14.25 26.0869C14.25 15.6836 22.6836 7.25002 33.0869 7.25L33.0869 6L33.0869 4.75C21.3029 4.75002 11.75 14.3029 11.75 26.0869L13 26.0869ZM33.0869 13.3047L33.0869 12.0547C25.337 12.0547 19.0547 18.337 19.0547 26.0869L20.3047 26.0869L21.5547 26.0869C21.5547 19.7177 26.7177 14.5547 33.0869 14.5547L33.0869 13.3047ZM20.3047 26.0869H19.0547C19.0547 33.8369 25.3369 40.1191 33.0869 40.1191L33.0869 38.8691L33.0869 37.6191C26.7176 37.6191 21.5547 32.4562 21.5547 26.0869H20.3047ZM33.0869 38.8691V40.1191C40.8369 40.1191 47.1191 33.8369 47.1191 26.0869H45.8691H44.6191C44.6191 32.4562 39.4562 37.6191 33.0869 37.6191V38.8691ZM45.8691 26.0869L47.1191 26.0869C47.1191 18.3369 40.8369 12.0547 33.0869 12.0547V13.3047V14.5547C39.4562 14.5547 44.6191 19.7176 44.6191 26.0869L45.8691 26.0869Z" fill="black"/>
</svg>
