<svg width="64" height="64" viewBox="0 0 64 64" fill="none" xmlns="http://www.w3.org/2000/svg">
<path d="M36.5 37.5C40.8781 35.0462 51.6254 30.2609 53.918 32.7525" stroke="black" stroke-width="2.5"/>
<path d="M41.918 28C41.918 24.4963 41.118 17.3911 37.918 17" stroke="black" stroke-width="2.5"/>
<path d="M40.918 29.0001C43.6536 27.2937 50.6697 24.1481 54.918 25.2164" stroke="black" stroke-width="2.5"/>
<path d="M32.328 21.559C20.7048 3.84847 -11.6918 32.7839 32.328 48C40.6373 36.4258 35.7902 25.5501 32.328 21.559Z" stroke="black" stroke-width="2.5"/>
<path d="M33.2939 21.5508L34.2347 22.3739L34.2899 22.3108L34.3363 22.2408L33.2939 21.5508ZM33.2939 47.9541L32.2815 48.6872L32.8241 49.4365L33.6992 49.1366L33.2939 47.9541ZM33.1992 47.8203L32.1827 47.0928L31.6621 47.8203L32.1827 48.5478L33.1992 47.8203ZM33.1992 21.6631L32.2488 20.8512L31.5552 21.6631L32.2488 22.475L33.1992 21.6631ZM33.2939 21.5508L34.3363 22.2408C36.9921 18.2288 40.7594 16.9125 44.3256 17.3207C47.9564 17.7363 51.3975 19.946 53.2339 23.0581C55.0325 26.1061 55.33 30.0778 52.5992 34.2467C49.8226 38.4858 43.8475 43.0161 32.8887 46.7716L33.2939 47.9541L33.6992 49.1366C44.9089 45.2951 51.4814 40.5158 54.6905 35.6166C57.9456 30.6472 57.6671 25.6517 55.387 21.7876C53.1446 17.9875 49.0042 15.3399 44.6099 14.8369C40.1508 14.3265 35.4493 16.0304 32.2516 20.8608L33.2939 21.5508ZM33.2939 47.9541L34.3064 47.221C34.2627 47.1606 34.2818 47.1852 34.2157 47.0928L33.1992 47.8203L32.1827 48.5478C32.1945 48.5642 32.2061 48.5808 32.2234 48.6055C32.2392 48.628 32.2596 48.657 32.2815 48.6872L33.2939 47.9541ZM33.1992 47.8203L34.2157 48.5478C42.8089 36.5414 37.8676 25.203 34.1496 20.8511L33.1992 21.6631L32.2488 22.475C35.4627 26.2369 39.9118 36.2938 32.1827 47.0928L33.1992 47.8203ZM33.1992 21.6631L34.1497 22.475C34.2287 22.3824 34.1953 22.419 34.2347 22.3739L33.2939 21.5508L32.3532 20.7277C32.3265 20.7582 32.3025 20.7869 32.2863 20.8064C32.2674 20.8291 32.2584 20.8399 32.2488 20.8512L33.1992 21.6631Z" fill="black"/>
<path d="M36.918 38C40.4924 31.5714 41.2584 21.5714 48.918 18" stroke="black" stroke-width="2.5"/>
</svg>
